<mxfile host="app.diagrams.net" modified="2024-04-01T08:36:39.519Z" agent="Mozilla/5.0 (Windows NT 10.0; Win64; x64) AppleWebKit/537.36 (KHTML, like Gecko) Chrome/123.0.0.0 Safari/537.36" version="24.2.0" etag="-Tu068G3HNqw_3Qybf-G" type="github">
  <diagram name="Page-1" id="4TfcOd6nCroT4oAjZkiM">
    <mxGraphModel>
      <root>
        <mxCell id="0" />
        <mxCell id="1" parent="0" />
      </root>
    </mxGraphModel>
  </diagram>
</mxfile>
